<svg xmlns="http://www.w3.org/2000/svg" xmlns:xlink="http://www.w3.org/1999/xlink" version="1.1" x="0px" y="0px" viewBox="0 0 100 125" enable-background="new 0 0 100 100" xml:space="preserve"><path d="M86.5,88.4C75.7,64.5,57.4,44,35,30.4c-2.6-1.6-5.2-3-7.8-4.4c2.9,5.1,4.4,11,5.3,16.8c0-0.2,0.3,1.4,0.1,1.5  c-0.2,0-0.6-1.5-0.6-1.3c-0.5-1.6-1-3.3-1.3-5c-0.2-0.5-0.4-1-0.7-1.5c-0.5-1-1-1.9-1.5-2.8c-1.2-2-2.6-3.8-4.1-5.5  c-1.9-2.2-4-4.3-6.1-6.3c-0.7-0.3-1.4-0.6-2.1-0.9c-0.1,0-0.1,0-0.2,0c-0.1,0-0.1-0.1-0.2-0.1c-0.2-0.1-0.3-0.1-0.5-0.2  c-0.2-0.1-0.5-1.4-0.4-1.3c-0.3-1.1-0.6-2.2-0.9-3.3c-0.3-1.1-0.5-2.2-0.8-3.3c0-0.2-0.2-1.4-0.2-1.4c0.1,0.1,0.3,0.1,0.4,0.2  c0-0.2,0-0.3,0-0.3c0.1,0.1,0.2,0.1,0.2,0.2c0,0,0-0.1,0-0.1c5.3,0.4,10.5,0.7,15.8,1.1c2.5,0.2,5,0.3,7.5,0.5  c1.4,0.1,2.8,0.2,4.1,0.3c0.8,0.1,1.9,0.5,2.6-0.1c0-0.1,0-0.1,0-0.1c0,0,0.1,0,0.1,0c0.6,0.2,1.2,3.7,1.3,4.3  c0.3,1.1,1.2,3.2,0.8,4.4c-0.5,1.4-5.1,0.5-6.3,0.5c-1.8-0.1-3.7-0.2-5.5-0.3C49.8,31.6,63.4,44.7,73.8,60  c4.4,6.4,8.1,13.2,11.2,20.4c0.9,2,1.3,4.2,1.7,6.3C86.8,87.1,87.3,90,86.5,88.4z"/><text x="0" y="115" fill="#000000" font-size="5px" font-weight="bold" font-family="'Helvetica Neue', Helvetica, Arial-Unicode, Arial, Sans-serif">Created by kiddo</text><text x="0" y="120" fill="#000000" font-size="5px" font-weight="bold" font-family="'Helvetica Neue', Helvetica, Arial-Unicode, Arial, Sans-serif">from the Noun Project</text></svg>